<?xml version="1.0" encoding="UTF-8" standalone="no"?> 
<!DOCTYPE svg PUBLIC "-//W3C//Dtd SVG 1.1//EN" "http://www.w3.org/Graphics/SVG/1.1/Dtd/svg11.dtd">
<svg width="360.0" height="222.0" version="1.1" xmlns="http://www.w3.org/2000/svg" xmlns:xlink="http://www.w3.org/1999/xlink">
<!-- Created by FidoCadJ ver. 0.24.7, export filter by Davide Bucci -->
<line x1="6.0" y1="116.0" x2="210.0" y2="116.0" style="stroke:#000000;stroke-width:1.0;fill-rule: evenodd;" fill="none"/>
<line x1="36.0" y1="106.0" x2="36.0" y2="46.0" style="stroke:#000000;stroke-width:1.0;fill-rule: evenodd;" fill="none"/>
<line x1="36.0" y1="46.0" x2="186.0" y2="46.0" style="stroke:#000000;stroke-width:1.0;fill-rule: evenodd;" fill="none"/>
<line x1="186.0" y1="46.0" x2="186.0" y2="106.0" style="stroke:#000000;stroke-width:1.0;fill-rule: evenodd;" fill="none"/>
<line x1="36.0" y1="126.0" x2="36.0" y2="216.0" style="stroke:#000000;stroke-width:1.0;fill-rule: evenodd;" fill="none"/>
<line x1="186.0" y1="156.0" x2="186.0" y2="126.0" style="stroke:#000000;stroke-width:1.0;fill-rule: evenodd;" fill="none"/>
<ellipse cx="179.0" cy="87.0" rx="7.0" ry="17.0" style="stroke:#000000;stroke-width:1.0;fill-rule: evenodd;" fill="none"/>
<line x1="38.0" y1="84.0" x2="38.0" y2="94.0" style="stroke:#000000;stroke-width:1.0;fill-rule: evenodd;" fill="none"/>
<line x1="38.0" y1="84.0" x2="38.5" y2="83.86" style="stroke:#000000;stroke-width:1.0;fill-rule: evenodd;" fill="none"/>
<line x1="38.5" y1="83.86" x2="39.0" y2="83.72" style="stroke:#000000;stroke-width:1.0;fill-rule: evenodd;" fill="none"/>
<line x1="39.0" y1="83.72" x2="39.5" y2="83.59" style="stroke:#000000;stroke-width:1.0;fill-rule: evenodd;" fill="none"/>
<line x1="39.5" y1="83.59" x2="39.99" y2="83.46" style="stroke:#000000;stroke-width:1.0;fill-rule: evenodd;" fill="none"/>
<line x1="39.99" y1="83.46" x2="40.48" y2="83.34" style="stroke:#000000;stroke-width:1.0;fill-rule: evenodd;" fill="none"/>
<line x1="40.48" y1="83.34" x2="40.97" y2="83.22" style="stroke:#000000;stroke-width:1.0;fill-rule: evenodd;" fill="none"/>
<line x1="40.97" y1="83.22" x2="41.45" y2="83.11" style="stroke:#000000;stroke-width:1.0;fill-rule: evenodd;" fill="none"/>
<line x1="41.45" y1="83.11" x2="41.93" y2="83.01" style="stroke:#000000;stroke-width:1.0;fill-rule: evenodd;" fill="none"/>
<line x1="41.93" y1="83.01" x2="42.39" y2="82.93" style="stroke:#000000;stroke-width:1.0;fill-rule: evenodd;" fill="none"/>
<line x1="42.39" y1="82.93" x2="42.86" y2="82.85" style="stroke:#000000;stroke-width:1.0;fill-rule: evenodd;" fill="none"/>
<line x1="42.86" y1="82.85" x2="43.31" y2="82.79" style="stroke:#000000;stroke-width:1.0;fill-rule: evenodd;" fill="none"/>
<line x1="43.31" y1="82.79" x2="43.75" y2="82.75" style="stroke:#000000;stroke-width:1.0;fill-rule: evenodd;" fill="none"/>
<line x1="43.75" y1="82.75" x2="44.18" y2="82.72" style="stroke:#000000;stroke-width:1.0;fill-rule: evenodd;" fill="none"/>
<line x1="44.18" y1="82.72" x2="44.6" y2="82.72" style="stroke:#000000;stroke-width:1.0;fill-rule: evenodd;" fill="none"/>
<line x1="44.6" y1="82.72" x2="45.01" y2="82.73" style="stroke:#000000;stroke-width:1.0;fill-rule: evenodd;" fill="none"/>
<line x1="45.01" y1="82.73" x2="45.41" y2="82.77" style="stroke:#000000;stroke-width:1.0;fill-rule: evenodd;" fill="none"/>
<line x1="45.41" y1="82.77" x2="45.79" y2="82.82" style="stroke:#000000;stroke-width:1.0;fill-rule: evenodd;" fill="none"/>
<line x1="45.79" y1="82.82" x2="46.16" y2="82.91" style="stroke:#000000;stroke-width:1.0;fill-rule: evenodd;" fill="none"/>
<line x1="46.16" y1="82.91" x2="46.51" y2="83.01" style="stroke:#000000;stroke-width:1.0;fill-rule: evenodd;" fill="none"/>
<line x1="46.51" y1="83.01" x2="46.84" y2="83.15" style="stroke:#000000;stroke-width:1.0;fill-rule: evenodd;" fill="none"/>
<line x1="46.84" y1="83.15" x2="47.16" y2="83.32" style="stroke:#000000;stroke-width:1.0;fill-rule: evenodd;" fill="none"/>
<line x1="47.16" y1="83.32" x2="47.46" y2="83.51" style="stroke:#000000;stroke-width:1.0;fill-rule: evenodd;" fill="none"/>
<line x1="47.46" y1="83.51" x2="47.74" y2="83.74" style="stroke:#000000;stroke-width:1.0;fill-rule: evenodd;" fill="none"/>
<line x1="47.74" y1="83.74" x2="48.0" y2="84.0" style="stroke:#000000;stroke-width:1.0;fill-rule: evenodd;" fill="none"/>
<line x1="48.0" y1="84.0" x2="48.24" y2="84.29" style="stroke:#000000;stroke-width:1.0;fill-rule: evenodd;" fill="none"/>
<line x1="48.24" y1="84.29" x2="48.46" y2="84.62" style="stroke:#000000;stroke-width:1.0;fill-rule: evenodd;" fill="none"/>
<line x1="48.46" y1="84.62" x2="48.66" y2="84.98" style="stroke:#000000;stroke-width:1.0;fill-rule: evenodd;" fill="none"/>
<line x1="48.66" y1="84.98" x2="48.83" y2="85.36" style="stroke:#000000;stroke-width:1.0;fill-rule: evenodd;" fill="none"/>
<line x1="48.83" y1="85.36" x2="48.99" y2="85.76" style="stroke:#000000;stroke-width:1.0;fill-rule: evenodd;" fill="none"/>
<line x1="48.99" y1="85.76" x2="49.13" y2="86.19" style="stroke:#000000;stroke-width:1.0;fill-rule: evenodd;" fill="none"/>
<line x1="49.13" y1="86.19" x2="49.24" y2="86.63" style="stroke:#000000;stroke-width:1.0;fill-rule: evenodd;" fill="none"/>
<line x1="49.24" y1="86.63" x2="49.33" y2="87.09" style="stroke:#000000;stroke-width:1.0;fill-rule: evenodd;" fill="none"/>
<line x1="49.33" y1="87.09" x2="49.41" y2="87.55" style="stroke:#000000;stroke-width:1.0;fill-rule: evenodd;" fill="none"/>
<line x1="49.41" y1="87.55" x2="49.46" y2="88.03" style="stroke:#000000;stroke-width:1.0;fill-rule: evenodd;" fill="none"/>
<line x1="49.46" y1="88.03" x2="49.49" y2="88.51" style="stroke:#000000;stroke-width:1.0;fill-rule: evenodd;" fill="none"/>
<line x1="49.49" y1="88.51" x2="49.5" y2="89.0" style="stroke:#000000;stroke-width:1.0;fill-rule: evenodd;" fill="none"/>
<line x1="49.5" y1="89.0" x2="49.49" y2="89.49" style="stroke:#000000;stroke-width:1.0;fill-rule: evenodd;" fill="none"/>
<line x1="49.49" y1="89.49" x2="49.46" y2="89.97" style="stroke:#000000;stroke-width:1.0;fill-rule: evenodd;" fill="none"/>
<line x1="49.46" y1="89.97" x2="49.41" y2="90.45" style="stroke:#000000;stroke-width:1.0;fill-rule: evenodd;" fill="none"/>
<line x1="49.41" y1="90.45" x2="49.33" y2="90.91" style="stroke:#000000;stroke-width:1.0;fill-rule: evenodd;" fill="none"/>
<line x1="49.33" y1="90.91" x2="49.24" y2="91.37" style="stroke:#000000;stroke-width:1.0;fill-rule: evenodd;" fill="none"/>
<line x1="49.24" y1="91.37" x2="49.13" y2="91.81" style="stroke:#000000;stroke-width:1.0;fill-rule: evenodd;" fill="none"/>
<line x1="49.13" y1="91.81" x2="48.99" y2="92.24" style="stroke:#000000;stroke-width:1.0;fill-rule: evenodd;" fill="none"/>
<line x1="48.99" y1="92.24" x2="48.83" y2="92.64" style="stroke:#000000;stroke-width:1.0;fill-rule: evenodd;" fill="none"/>
<line x1="48.83" y1="92.64" x2="48.66" y2="93.02" style="stroke:#000000;stroke-width:1.0;fill-rule: evenodd;" fill="none"/>
<line x1="48.66" y1="93.02" x2="48.46" y2="93.38" style="stroke:#000000;stroke-width:1.0;fill-rule: evenodd;" fill="none"/>
<line x1="48.46" y1="93.38" x2="48.24" y2="93.71" style="stroke:#000000;stroke-width:1.0;fill-rule: evenodd;" fill="none"/>
<line x1="48.24" y1="93.71" x2="48.0" y2="94.0" style="stroke:#000000;stroke-width:1.0;fill-rule: evenodd;" fill="none"/>
<line x1="48.0" y1="94.0" x2="47.74" y2="94.26" style="stroke:#000000;stroke-width:1.0;fill-rule: evenodd;" fill="none"/>
<line x1="47.74" y1="94.26" x2="47.46" y2="94.49" style="stroke:#000000;stroke-width:1.0;fill-rule: evenodd;" fill="none"/>
<line x1="47.46" y1="94.49" x2="47.16" y2="94.68" style="stroke:#000000;stroke-width:1.0;fill-rule: evenodd;" fill="none"/>
<line x1="47.16" y1="94.68" x2="46.84" y2="94.85" style="stroke:#000000;stroke-width:1.0;fill-rule: evenodd;" fill="none"/>
<line x1="46.84" y1="94.85" x2="46.51" y2="94.99" style="stroke:#000000;stroke-width:1.0;fill-rule: evenodd;" fill="none"/>
<line x1="46.51" y1="94.99" x2="46.16" y2="95.09" style="stroke:#000000;stroke-width:1.0;fill-rule: evenodd;" fill="none"/>
<line x1="46.16" y1="95.09" x2="45.79" y2="95.18" style="stroke:#000000;stroke-width:1.0;fill-rule: evenodd;" fill="none"/>
<line x1="45.79" y1="95.18" x2="45.41" y2="95.23" style="stroke:#000000;stroke-width:1.0;fill-rule: evenodd;" fill="none"/>
<line x1="45.41" y1="95.23" x2="45.01" y2="95.27" style="stroke:#000000;stroke-width:1.0;fill-rule: evenodd;" fill="none"/>
<line x1="45.01" y1="95.27" x2="44.6" y2="95.28" style="stroke:#000000;stroke-width:1.0;fill-rule: evenodd;" fill="none"/>
<line x1="44.6" y1="95.28" x2="44.18" y2="95.28" style="stroke:#000000;stroke-width:1.0;fill-rule: evenodd;" fill="none"/>
<line x1="44.18" y1="95.28" x2="43.75" y2="95.25" style="stroke:#000000;stroke-width:1.0;fill-rule: evenodd;" fill="none"/>
<line x1="43.75" y1="95.25" x2="43.31" y2="95.21" style="stroke:#000000;stroke-width:1.0;fill-rule: evenodd;" fill="none"/>
<line x1="43.31" y1="95.21" x2="42.86" y2="95.15" style="stroke:#000000;stroke-width:1.0;fill-rule: evenodd;" fill="none"/>
<line x1="42.86" y1="95.15" x2="42.39" y2="95.07" style="stroke:#000000;stroke-width:1.0;fill-rule: evenodd;" fill="none"/>
<line x1="42.39" y1="95.07" x2="41.93" y2="94.99" style="stroke:#000000;stroke-width:1.0;fill-rule: evenodd;" fill="none"/>
<line x1="41.93" y1="94.99" x2="41.45" y2="94.89" style="stroke:#000000;stroke-width:1.0;fill-rule: evenodd;" fill="none"/>
<line x1="41.45" y1="94.89" x2="40.97" y2="94.78" style="stroke:#000000;stroke-width:1.0;fill-rule: evenodd;" fill="none"/>
<line x1="40.97" y1="94.78" x2="40.48" y2="94.66" style="stroke:#000000;stroke-width:1.0;fill-rule: evenodd;" fill="none"/>
<line x1="40.48" y1="94.66" x2="39.99" y2="94.54" style="stroke:#000000;stroke-width:1.0;fill-rule: evenodd;" fill="none"/>
<line x1="39.99" y1="94.54" x2="39.5" y2="94.41" style="stroke:#000000;stroke-width:1.0;fill-rule: evenodd;" fill="none"/>
<line x1="39.5" y1="94.41" x2="39.0" y2="94.28" style="stroke:#000000;stroke-width:1.0;fill-rule: evenodd;" fill="none"/>
<line x1="39.0" y1="94.28" x2="38.5" y2="94.14" style="stroke:#000000;stroke-width:1.0;fill-rule: evenodd;" fill="none"/>
<line x1="38.5" y1="94.14" x2="38.0" y2="94.0" style="stroke:#000000;stroke-width:1.0;fill-rule: evenodd;" fill="none"/>
<line x1="38.0" y1="138.0" x2="38.0" y2="148.0" style="stroke:#000000;stroke-width:1.0;fill-rule: evenodd;" fill="none"/>
<line x1="38.0" y1="138.0" x2="38.5" y2="137.86" style="stroke:#000000;stroke-width:1.0;fill-rule: evenodd;" fill="none"/>
<line x1="38.5" y1="137.86" x2="39.0" y2="137.72" style="stroke:#000000;stroke-width:1.0;fill-rule: evenodd;" fill="none"/>
<line x1="39.0" y1="137.72" x2="39.5" y2="137.59" style="stroke:#000000;stroke-width:1.0;fill-rule: evenodd;" fill="none"/>
<line x1="39.5" y1="137.59" x2="39.99" y2="137.46" style="stroke:#000000;stroke-width:1.0;fill-rule: evenodd;" fill="none"/>
<line x1="39.99" y1="137.46" x2="40.48" y2="137.34" style="stroke:#000000;stroke-width:1.0;fill-rule: evenodd;" fill="none"/>
<line x1="40.48" y1="137.34" x2="40.97" y2="137.22" style="stroke:#000000;stroke-width:1.0;fill-rule: evenodd;" fill="none"/>
<line x1="40.97" y1="137.22" x2="41.45" y2="137.11" style="stroke:#000000;stroke-width:1.0;fill-rule: evenodd;" fill="none"/>
<line x1="41.45" y1="137.11" x2="41.93" y2="137.01" style="stroke:#000000;stroke-width:1.0;fill-rule: evenodd;" fill="none"/>
<line x1="41.93" y1="137.01" x2="42.39" y2="136.93" style="stroke:#000000;stroke-width:1.0;fill-rule: evenodd;" fill="none"/>
<line x1="42.39" y1="136.93" x2="42.86" y2="136.85" style="stroke:#000000;stroke-width:1.0;fill-rule: evenodd;" fill="none"/>
<line x1="42.86" y1="136.85" x2="43.31" y2="136.79" style="stroke:#000000;stroke-width:1.0;fill-rule: evenodd;" fill="none"/>
<line x1="43.31" y1="136.79" x2="43.75" y2="136.75" style="stroke:#000000;stroke-width:1.0;fill-rule: evenodd;" fill="none"/>
<line x1="43.75" y1="136.75" x2="44.18" y2="136.72" style="stroke:#000000;stroke-width:1.0;fill-rule: evenodd;" fill="none"/>
<line x1="44.18" y1="136.72" x2="44.6" y2="136.72" style="stroke:#000000;stroke-width:1.0;fill-rule: evenodd;" fill="none"/>
<line x1="44.6" y1="136.72" x2="45.01" y2="136.73" style="stroke:#000000;stroke-width:1.0;fill-rule: evenodd;" fill="none"/>
<line x1="45.01" y1="136.73" x2="45.41" y2="136.77" style="stroke:#000000;stroke-width:1.0;fill-rule: evenodd;" fill="none"/>
<line x1="45.41" y1="136.77" x2="45.79" y2="136.82" style="stroke:#000000;stroke-width:1.0;fill-rule: evenodd;" fill="none"/>
<line x1="45.79" y1="136.82" x2="46.16" y2="136.91" style="stroke:#000000;stroke-width:1.0;fill-rule: evenodd;" fill="none"/>
<line x1="46.16" y1="136.91" x2="46.51" y2="137.01" style="stroke:#000000;stroke-width:1.0;fill-rule: evenodd;" fill="none"/>
<line x1="46.51" y1="137.01" x2="46.84" y2="137.15" style="stroke:#000000;stroke-width:1.0;fill-rule: evenodd;" fill="none"/>
<line x1="46.84" y1="137.15" x2="47.16" y2="137.32" style="stroke:#000000;stroke-width:1.0;fill-rule: evenodd;" fill="none"/>
<line x1="47.16" y1="137.32" x2="47.46" y2="137.51" style="stroke:#000000;stroke-width:1.0;fill-rule: evenodd;" fill="none"/>
<line x1="47.46" y1="137.51" x2="47.74" y2="137.74" style="stroke:#000000;stroke-width:1.0;fill-rule: evenodd;" fill="none"/>
<line x1="47.74" y1="137.74" x2="48.0" y2="138.0" style="stroke:#000000;stroke-width:1.0;fill-rule: evenodd;" fill="none"/>
<line x1="48.0" y1="138.0" x2="48.24" y2="138.29" style="stroke:#000000;stroke-width:1.0;fill-rule: evenodd;" fill="none"/>
<line x1="48.24" y1="138.29" x2="48.46" y2="138.62" style="stroke:#000000;stroke-width:1.0;fill-rule: evenodd;" fill="none"/>
<line x1="48.46" y1="138.62" x2="48.66" y2="138.98" style="stroke:#000000;stroke-width:1.0;fill-rule: evenodd;" fill="none"/>
<line x1="48.66" y1="138.98" x2="48.83" y2="139.36" style="stroke:#000000;stroke-width:1.0;fill-rule: evenodd;" fill="none"/>
<line x1="48.83" y1="139.36" x2="48.99" y2="139.76" style="stroke:#000000;stroke-width:1.0;fill-rule: evenodd;" fill="none"/>
<line x1="48.99" y1="139.76" x2="49.13" y2="140.19" style="stroke:#000000;stroke-width:1.0;fill-rule: evenodd;" fill="none"/>
<line x1="49.13" y1="140.19" x2="49.24" y2="140.63" style="stroke:#000000;stroke-width:1.0;fill-rule: evenodd;" fill="none"/>
<line x1="49.24" y1="140.63" x2="49.33" y2="141.09" style="stroke:#000000;stroke-width:1.0;fill-rule: evenodd;" fill="none"/>
<line x1="49.33" y1="141.09" x2="49.41" y2="141.55" style="stroke:#000000;stroke-width:1.0;fill-rule: evenodd;" fill="none"/>
<line x1="49.41" y1="141.55" x2="49.46" y2="142.03" style="stroke:#000000;stroke-width:1.0;fill-rule: evenodd;" fill="none"/>
<line x1="49.46" y1="142.03" x2="49.49" y2="142.51" style="stroke:#000000;stroke-width:1.0;fill-rule: evenodd;" fill="none"/>
<line x1="49.49" y1="142.51" x2="49.5" y2="143.0" style="stroke:#000000;stroke-width:1.0;fill-rule: evenodd;" fill="none"/>
<line x1="49.5" y1="143.0" x2="49.49" y2="143.49" style="stroke:#000000;stroke-width:1.0;fill-rule: evenodd;" fill="none"/>
<line x1="49.49" y1="143.49" x2="49.46" y2="143.97" style="stroke:#000000;stroke-width:1.0;fill-rule: evenodd;" fill="none"/>
<line x1="49.46" y1="143.97" x2="49.41" y2="144.45" style="stroke:#000000;stroke-width:1.0;fill-rule: evenodd;" fill="none"/>
<line x1="49.41" y1="144.45" x2="49.33" y2="144.91" style="stroke:#000000;stroke-width:1.0;fill-rule: evenodd;" fill="none"/>
<line x1="49.33" y1="144.91" x2="49.24" y2="145.37" style="stroke:#000000;stroke-width:1.0;fill-rule: evenodd;" fill="none"/>
<line x1="49.24" y1="145.37" x2="49.13" y2="145.81" style="stroke:#000000;stroke-width:1.0;fill-rule: evenodd;" fill="none"/>
<line x1="49.13" y1="145.81" x2="48.99" y2="146.24" style="stroke:#000000;stroke-width:1.0;fill-rule: evenodd;" fill="none"/>
<line x1="48.99" y1="146.24" x2="48.83" y2="146.64" style="stroke:#000000;stroke-width:1.0;fill-rule: evenodd;" fill="none"/>
<line x1="48.83" y1="146.64" x2="48.66" y2="147.02" style="stroke:#000000;stroke-width:1.0;fill-rule: evenodd;" fill="none"/>
<line x1="48.66" y1="147.02" x2="48.46" y2="147.38" style="stroke:#000000;stroke-width:1.0;fill-rule: evenodd;" fill="none"/>
<line x1="48.46" y1="147.38" x2="48.24" y2="147.71" style="stroke:#000000;stroke-width:1.0;fill-rule: evenodd;" fill="none"/>
<line x1="48.24" y1="147.71" x2="48.0" y2="148.0" style="stroke:#000000;stroke-width:1.0;fill-rule: evenodd;" fill="none"/>
<line x1="48.0" y1="148.0" x2="47.74" y2="148.26" style="stroke:#000000;stroke-width:1.0;fill-rule: evenodd;" fill="none"/>
<line x1="47.74" y1="148.26" x2="47.46" y2="148.49" style="stroke:#000000;stroke-width:1.0;fill-rule: evenodd;" fill="none"/>
<line x1="47.46" y1="148.49" x2="47.16" y2="148.68" style="stroke:#000000;stroke-width:1.0;fill-rule: evenodd;" fill="none"/>
<line x1="47.16" y1="148.68" x2="46.84" y2="148.85" style="stroke:#000000;stroke-width:1.0;fill-rule: evenodd;" fill="none"/>
<line x1="46.84" y1="148.85" x2="46.51" y2="148.99" style="stroke:#000000;stroke-width:1.0;fill-rule: evenodd;" fill="none"/>
<line x1="46.51" y1="148.99" x2="46.16" y2="149.09" style="stroke:#000000;stroke-width:1.0;fill-rule: evenodd;" fill="none"/>
<line x1="46.16" y1="149.09" x2="45.79" y2="149.18" style="stroke:#000000;stroke-width:1.0;fill-rule: evenodd;" fill="none"/>
<line x1="45.79" y1="149.18" x2="45.41" y2="149.23" style="stroke:#000000;stroke-width:1.0;fill-rule: evenodd;" fill="none"/>
<line x1="45.41" y1="149.23" x2="45.01" y2="149.27" style="stroke:#000000;stroke-width:1.0;fill-rule: evenodd;" fill="none"/>
<line x1="45.01" y1="149.27" x2="44.6" y2="149.28" style="stroke:#000000;stroke-width:1.0;fill-rule: evenodd;" fill="none"/>
<line x1="44.6" y1="149.28" x2="44.18" y2="149.28" style="stroke:#000000;stroke-width:1.0;fill-rule: evenodd;" fill="none"/>
<line x1="44.18" y1="149.28" x2="43.75" y2="149.25" style="stroke:#000000;stroke-width:1.0;fill-rule: evenodd;" fill="none"/>
<line x1="43.75" y1="149.25" x2="43.31" y2="149.21" style="stroke:#000000;stroke-width:1.0;fill-rule: evenodd;" fill="none"/>
<line x1="43.31" y1="149.21" x2="42.86" y2="149.15" style="stroke:#000000;stroke-width:1.0;fill-rule: evenodd;" fill="none"/>
<line x1="42.86" y1="149.15" x2="42.39" y2="149.07" style="stroke:#000000;stroke-width:1.0;fill-rule: evenodd;" fill="none"/>
<line x1="42.39" y1="149.07" x2="41.93" y2="148.99" style="stroke:#000000;stroke-width:1.0;fill-rule: evenodd;" fill="none"/>
<line x1="41.93" y1="148.99" x2="41.45" y2="148.89" style="stroke:#000000;stroke-width:1.0;fill-rule: evenodd;" fill="none"/>
<line x1="41.45" y1="148.89" x2="40.97" y2="148.78" style="stroke:#000000;stroke-width:1.0;fill-rule: evenodd;" fill="none"/>
<line x1="40.97" y1="148.78" x2="40.48" y2="148.66" style="stroke:#000000;stroke-width:1.0;fill-rule: evenodd;" fill="none"/>
<line x1="40.48" y1="148.66" x2="39.99" y2="148.54" style="stroke:#000000;stroke-width:1.0;fill-rule: evenodd;" fill="none"/>
<line x1="39.99" y1="148.54" x2="39.5" y2="148.41" style="stroke:#000000;stroke-width:1.0;fill-rule: evenodd;" fill="none"/>
<line x1="39.5" y1="148.41" x2="39.0" y2="148.28" style="stroke:#000000;stroke-width:1.0;fill-rule: evenodd;" fill="none"/>
<line x1="39.0" y1="148.28" x2="38.5" y2="148.14" style="stroke:#000000;stroke-width:1.0;fill-rule: evenodd;" fill="none"/>
<line x1="38.5" y1="148.14" x2="38.0" y2="148.0" style="stroke:#000000;stroke-width:1.0;fill-rule: evenodd;" fill="none"/>
<line x1="36.0" y1="216.0" x2="256.0" y2="216.0" style="stroke:#000000;stroke-width:1.0;fill-rule: evenodd;" fill="none"/>
<line x1="256.0" y1="216.0" x2="256.0" y2="166.0" style="stroke:#000000;stroke-width:1.0;fill-rule: evenodd;" fill="none"/>
<line x1="36.0" y1="116.0" x2="39.06" y2="114.75" style="stroke:#000000;stroke-width:1.0;fill-rule: evenodd;" fill="none"/>
<line x1="39.06" y1="114.75" x2="42.13" y2="113.51" style="stroke:#000000;stroke-width:1.0;fill-rule: evenodd;" fill="none"/>
<line x1="42.13" y1="113.51" x2="45.19" y2="112.27" style="stroke:#000000;stroke-width:1.0;fill-rule: evenodd;" fill="none"/>
<line x1="45.19" y1="112.27" x2="48.25" y2="111.05" style="stroke:#000000;stroke-width:1.0;fill-rule: evenodd;" fill="none"/>
<line x1="48.25" y1="111.05" x2="51.32" y2="109.84" style="stroke:#000000;stroke-width:1.0;fill-rule: evenodd;" fill="none"/>
<line x1="51.32" y1="109.84" x2="54.38" y2="108.66" style="stroke:#000000;stroke-width:1.0;fill-rule: evenodd;" fill="none"/>
<line x1="54.38" y1="108.66" x2="57.45" y2="107.5" style="stroke:#000000;stroke-width:1.0;fill-rule: evenodd;" fill="none"/>
<line x1="57.45" y1="107.5" x2="60.52" y2="106.37" style="stroke:#000000;stroke-width:1.0;fill-rule: evenodd;" fill="none"/>
<line x1="60.52" y1="106.37" x2="63.59" y2="105.28" style="stroke:#000000;stroke-width:1.0;fill-rule: evenodd;" fill="none"/>
<line x1="63.59" y1="105.28" x2="66.66" y2="104.22" style="stroke:#000000;stroke-width:1.0;fill-rule: evenodd;" fill="none"/>
<line x1="66.66" y1="104.22" x2="69.74" y2="103.21" style="stroke:#000000;stroke-width:1.0;fill-rule: evenodd;" fill="none"/>
<line x1="69.74" y1="103.21" x2="72.81" y2="102.25" style="stroke:#000000;stroke-width:1.0;fill-rule: evenodd;" fill="none"/>
<line x1="72.81" y1="102.25" x2="75.89" y2="101.34" style="stroke:#000000;stroke-width:1.0;fill-rule: evenodd;" fill="none"/>
<line x1="75.89" y1="101.34" x2="78.97" y2="100.48" style="stroke:#000000;stroke-width:1.0;fill-rule: evenodd;" fill="none"/>
<line x1="78.97" y1="100.48" x2="82.06" y2="99.69" style="stroke:#000000;stroke-width:1.0;fill-rule: evenodd;" fill="none"/>
<line x1="82.06" y1="99.69" x2="85.15" y2="98.96" style="stroke:#000000;stroke-width:1.0;fill-rule: evenodd;" fill="none"/>
<line x1="85.15" y1="98.96" x2="88.24" y2="98.3" style="stroke:#000000;stroke-width:1.0;fill-rule: evenodd;" fill="none"/>
<line x1="88.24" y1="98.3" x2="91.34" y2="97.72" style="stroke:#000000;stroke-width:1.0;fill-rule: evenodd;" fill="none"/>
<line x1="91.34" y1="97.72" x2="94.44" y2="97.21" style="stroke:#000000;stroke-width:1.0;fill-rule: evenodd;" fill="none"/>
<line x1="94.44" y1="97.21" x2="97.54" y2="96.79" style="stroke:#000000;stroke-width:1.0;fill-rule: evenodd;" fill="none"/>
<line x1="97.54" y1="96.79" x2="100.65" y2="96.45" style="stroke:#000000;stroke-width:1.0;fill-rule: evenodd;" fill="none"/>
<line x1="100.65" y1="96.45" x2="103.76" y2="96.2" style="stroke:#000000;stroke-width:1.0;fill-rule: evenodd;" fill="none"/>
<line x1="103.76" y1="96.2" x2="106.88" y2="96.05" style="stroke:#000000;stroke-width:1.0;fill-rule: evenodd;" fill="none"/>
<line x1="106.88" y1="96.05" x2="110.0" y2="96.0" style="stroke:#000000;stroke-width:1.0;fill-rule: evenodd;" fill="none"/>
<line x1="110.0" y1="96.0" x2="113.13" y2="96.05" style="stroke:#000000;stroke-width:1.0;fill-rule: evenodd;" fill="none"/>
<line x1="113.13" y1="96.05" x2="116.26" y2="96.2" style="stroke:#000000;stroke-width:1.0;fill-rule: evenodd;" fill="none"/>
<line x1="116.26" y1="96.2" x2="119.4" y2="96.45" style="stroke:#000000;stroke-width:1.0;fill-rule: evenodd;" fill="none"/>
<line x1="119.4" y1="96.45" x2="122.54" y2="96.79" style="stroke:#000000;stroke-width:1.0;fill-rule: evenodd;" fill="none"/>
<line x1="122.54" y1="96.79" x2="125.69" y2="97.21" style="stroke:#000000;stroke-width:1.0;fill-rule: evenodd;" fill="none"/>
<line x1="125.69" y1="97.21" x2="128.84" y2="97.72" style="stroke:#000000;stroke-width:1.0;fill-rule: evenodd;" fill="none"/>
<line x1="128.84" y1="97.72" x2="131.99" y2="98.3" style="stroke:#000000;stroke-width:1.0;fill-rule: evenodd;" fill="none"/>
<line x1="131.99" y1="98.3" x2="135.15" y2="98.96" style="stroke:#000000;stroke-width:1.0;fill-rule: evenodd;" fill="none"/>
<line x1="135.15" y1="98.96" x2="138.31" y2="99.69" style="stroke:#000000;stroke-width:1.0;fill-rule: evenodd;" fill="none"/>
<line x1="138.31" y1="99.69" x2="141.47" y2="100.48" style="stroke:#000000;stroke-width:1.0;fill-rule: evenodd;" fill="none"/>
<line x1="141.47" y1="100.48" x2="144.64" y2="101.34" style="stroke:#000000;stroke-width:1.0;fill-rule: evenodd;" fill="none"/>
<line x1="144.64" y1="101.34" x2="147.81" y2="102.25" style="stroke:#000000;stroke-width:1.0;fill-rule: evenodd;" fill="none"/>
<line x1="147.81" y1="102.25" x2="150.99" y2="103.21" style="stroke:#000000;stroke-width:1.0;fill-rule: evenodd;" fill="none"/>
<line x1="150.99" y1="103.21" x2="154.16" y2="104.22" style="stroke:#000000;stroke-width:1.0;fill-rule: evenodd;" fill="none"/>
<line x1="154.16" y1="104.22" x2="157.34" y2="105.28" style="stroke:#000000;stroke-width:1.0;fill-rule: evenodd;" fill="none"/>
<line x1="157.34" y1="105.28" x2="160.52" y2="106.37" style="stroke:#000000;stroke-width:1.0;fill-rule: evenodd;" fill="none"/>
<line x1="160.52" y1="106.37" x2="163.7" y2="107.5" style="stroke:#000000;stroke-width:1.0;fill-rule: evenodd;" fill="none"/>
<line x1="163.7" y1="107.5" x2="166.88" y2="108.66" style="stroke:#000000;stroke-width:1.0;fill-rule: evenodd;" fill="none"/>
<line x1="166.88" y1="108.66" x2="170.07" y2="109.84" style="stroke:#000000;stroke-width:1.0;fill-rule: evenodd;" fill="none"/>
<line x1="170.07" y1="109.84" x2="173.25" y2="111.05" style="stroke:#000000;stroke-width:1.0;fill-rule: evenodd;" fill="none"/>
<line x1="173.25" y1="111.05" x2="176.44" y2="112.27" style="stroke:#000000;stroke-width:1.0;fill-rule: evenodd;" fill="none"/>
<line x1="176.44" y1="112.27" x2="179.63" y2="113.51" style="stroke:#000000;stroke-width:1.0;fill-rule: evenodd;" fill="none"/>
<line x1="179.63" y1="113.51" x2="182.81" y2="114.75" style="stroke:#000000;stroke-width:1.0;fill-rule: evenodd;" fill="none"/>
<line x1="182.81" y1="114.75" x2="186.0" y2="116.0" style="stroke:#000000;stroke-width:1.0;fill-rule: evenodd;" fill="none"/>
<line x1="186.0" y1="166.0" x2="186.0" y2="156.0" style="stroke:#000000;stroke-width:1.0;fill-rule: evenodd;" fill="none"/>
<line x1="36.0" y1="116.0" x2="39.31" y2="117.37" style="stroke:#000000;stroke-width:1.0;fill-rule: evenodd;" fill="none"/>
<line x1="39.31" y1="117.37" x2="42.62" y2="118.74" style="stroke:#000000;stroke-width:1.0;fill-rule: evenodd;" fill="none"/>
<line x1="42.62" y1="118.74" x2="45.93" y2="120.1" style="stroke:#000000;stroke-width:1.0;fill-rule: evenodd;" fill="none"/>
<line x1="45.93" y1="120.1" x2="49.24" y2="121.45" style="stroke:#000000;stroke-width:1.0;fill-rule: evenodd;" fill="none"/>
<line x1="49.24" y1="121.45" x2="52.55" y2="122.78" style="stroke:#000000;stroke-width:1.0;fill-rule: evenodd;" fill="none"/>
<line x1="52.55" y1="122.78" x2="55.85" y2="124.08" style="stroke:#000000;stroke-width:1.0;fill-rule: evenodd;" fill="none"/>
<line x1="55.85" y1="124.08" x2="59.15" y2="125.35" style="stroke:#000000;stroke-width:1.0;fill-rule: evenodd;" fill="none"/>
<line x1="59.15" y1="125.35" x2="62.44" y2="126.59" style="stroke:#000000;stroke-width:1.0;fill-rule: evenodd;" fill="none"/>
<line x1="62.44" y1="126.59" x2="65.73" y2="127.79" style="stroke:#000000;stroke-width:1.0;fill-rule: evenodd;" fill="none"/>
<line x1="65.73" y1="127.79" x2="69.02" y2="128.95" style="stroke:#000000;stroke-width:1.0;fill-rule: evenodd;" fill="none"/>
<line x1="69.02" y1="128.95" x2="72.29" y2="130.07" style="stroke:#000000;stroke-width:1.0;fill-rule: evenodd;" fill="none"/>
<line x1="72.29" y1="130.07" x2="75.56" y2="131.13" style="stroke:#000000;stroke-width:1.0;fill-rule: evenodd;" fill="none"/>
<line x1="75.56" y1="131.13" x2="78.82" y2="132.13" style="stroke:#000000;stroke-width:1.0;fill-rule: evenodd;" fill="none"/>
<line x1="78.82" y1="132.13" x2="82.08" y2="133.07" style="stroke:#000000;stroke-width:1.0;fill-rule: evenodd;" fill="none"/>
<line x1="82.08" y1="133.07" x2="85.32" y2="133.94" style="stroke:#000000;stroke-width:1.0;fill-rule: evenodd;" fill="none"/>
<line x1="85.32" y1="133.94" x2="88.56" y2="134.74" style="stroke:#000000;stroke-width:1.0;fill-rule: evenodd;" fill="none"/>
<line x1="88.56" y1="134.74" x2="91.78" y2="135.47" style="stroke:#000000;stroke-width:1.0;fill-rule: evenodd;" fill="none"/>
<line x1="91.78" y1="135.47" x2="94.99" y2="136.11" style="stroke:#000000;stroke-width:1.0;fill-rule: evenodd;" fill="none"/>
<line x1="94.99" y1="136.11" x2="98.19" y2="136.67" style="stroke:#000000;stroke-width:1.0;fill-rule: evenodd;" fill="none"/>
<line x1="98.19" y1="136.67" x2="101.38" y2="137.13" style="stroke:#000000;stroke-width:1.0;fill-rule: evenodd;" fill="none"/>
<line x1="101.38" y1="137.13" x2="104.56" y2="137.51" style="stroke:#000000;stroke-width:1.0;fill-rule: evenodd;" fill="none"/>
<line x1="104.56" y1="137.51" x2="107.72" y2="137.78" style="stroke:#000000;stroke-width:1.0;fill-rule: evenodd;" fill="none"/>
<line x1="107.72" y1="137.78" x2="110.87" y2="137.94" style="stroke:#000000;stroke-width:1.0;fill-rule: evenodd;" fill="none"/>
<line x1="110.87" y1="137.94" x2="114.0" y2="138.0" style="stroke:#000000;stroke-width:1.0;fill-rule: evenodd;" fill="none"/>
<line x1="114.0" y1="138.0" x2="117.12" y2="137.94" style="stroke:#000000;stroke-width:1.0;fill-rule: evenodd;" fill="none"/>
<line x1="117.12" y1="137.94" x2="120.22" y2="137.78" style="stroke:#000000;stroke-width:1.0;fill-rule: evenodd;" fill="none"/>
<line x1="120.22" y1="137.78" x2="123.31" y2="137.51" style="stroke:#000000;stroke-width:1.0;fill-rule: evenodd;" fill="none"/>
<line x1="123.31" y1="137.51" x2="126.38" y2="137.13" style="stroke:#000000;stroke-width:1.0;fill-rule: evenodd;" fill="none"/>
<line x1="126.38" y1="137.13" x2="129.44" y2="136.67" style="stroke:#000000;stroke-width:1.0;fill-rule: evenodd;" fill="none"/>
<line x1="129.44" y1="136.67" x2="132.49" y2="136.11" style="stroke:#000000;stroke-width:1.0;fill-rule: evenodd;" fill="none"/>
<line x1="132.49" y1="136.11" x2="135.53" y2="135.47" style="stroke:#000000;stroke-width:1.0;fill-rule: evenodd;" fill="none"/>
<line x1="135.53" y1="135.47" x2="138.56" y2="134.74" style="stroke:#000000;stroke-width:1.0;fill-rule: evenodd;" fill="none"/>
<line x1="138.56" y1="134.74" x2="141.57" y2="133.94" style="stroke:#000000;stroke-width:1.0;fill-rule: evenodd;" fill="none"/>
<line x1="141.57" y1="133.94" x2="144.58" y2="133.07" style="stroke:#000000;stroke-width:1.0;fill-rule: evenodd;" fill="none"/>
<line x1="144.58" y1="133.07" x2="147.57" y2="132.13" style="stroke:#000000;stroke-width:1.0;fill-rule: evenodd;" fill="none"/>
<line x1="147.57" y1="132.13" x2="150.56" y2="131.13" style="stroke:#000000;stroke-width:1.0;fill-rule: evenodd;" fill="none"/>
<line x1="150.56" y1="131.13" x2="153.54" y2="130.07" style="stroke:#000000;stroke-width:1.0;fill-rule: evenodd;" fill="none"/>
<line x1="153.54" y1="130.07" x2="156.52" y2="128.95" style="stroke:#000000;stroke-width:1.0;fill-rule: evenodd;" fill="none"/>
<line x1="156.52" y1="128.95" x2="159.48" y2="127.79" style="stroke:#000000;stroke-width:1.0;fill-rule: evenodd;" fill="none"/>
<line x1="159.48" y1="127.79" x2="162.44" y2="126.59" style="stroke:#000000;stroke-width:1.0;fill-rule: evenodd;" fill="none"/>
<line x1="162.44" y1="126.59" x2="165.4" y2="125.35" style="stroke:#000000;stroke-width:1.0;fill-rule: evenodd;" fill="none"/>
<line x1="165.4" y1="125.35" x2="168.35" y2="124.08" style="stroke:#000000;stroke-width:1.0;fill-rule: evenodd;" fill="none"/>
<line x1="168.35" y1="124.08" x2="171.3" y2="122.78" style="stroke:#000000;stroke-width:1.0;fill-rule: evenodd;" fill="none"/>
<line x1="171.3" y1="122.78" x2="174.24" y2="121.45" style="stroke:#000000;stroke-width:1.0;fill-rule: evenodd;" fill="none"/>
<line x1="174.24" y1="121.45" x2="177.18" y2="120.1" style="stroke:#000000;stroke-width:1.0;fill-rule: evenodd;" fill="none"/>
<line x1="177.18" y1="120.1" x2="180.12" y2="118.74" style="stroke:#000000;stroke-width:1.0;fill-rule: evenodd;" fill="none"/>
<line x1="180.12" y1="118.74" x2="183.06" y2="117.37" style="stroke:#000000;stroke-width:1.0;fill-rule: evenodd;" fill="none"/>
<line x1="183.06" y1="117.37" x2="186.0" y2="116.0" style="stroke:#000000;stroke-width:1.0;fill-rule: evenodd;" fill="none"/>
<line x1="256.0" y1="166.0" x2="186.0" y2="166.0" style="stroke:#000000;stroke-width:1.0;fill-rule: evenodd;" fill="none"/>
<line x1="310.0" y1="186.0" x2="200.0" y2="186.0" style="stroke:#000000;stroke-width:1.0;fill-rule: evenodd;" fill="none"/>
<polygon points="200.0,186.0 206.0,182.0 206.0,190.0" style="stroke:#000000;stroke-width:1.0;fill-rule: evenodd;" fill="#000000"/>
<line x1="174.0" y1="92.0" x2="182.0" y2="90.0" style="stroke:#000000;stroke-width:1.0;fill-rule: evenodd;" fill="none"/>
<line x1="182.0" y1="90.0" x2="174.0" y2="88.0" style="stroke:#000000;stroke-width:1.0;fill-rule: evenodd;" fill="none"/>
<line x1="174.0" y1="88.0" x2="182.0" y2="86.0" style="stroke:#000000;stroke-width:1.0;fill-rule: evenodd;" fill="none"/>
<line x1="182.0" y1="86.0" x2="174.0" y2="84.0" style="stroke:#000000;stroke-width:1.0;fill-rule: evenodd;" fill="none"/>
<line x1="174.0" y1="84.0" x2="182.0" y2="82.0" style="stroke:#000000;stroke-width:1.0;fill-rule: evenodd;" fill="none"/>
<line x1="178.0" y1="102.0" x2="178.0" y2="94.0" style="stroke:#000000;stroke-width:1.0;fill-rule: evenodd;" fill="none"/>
<line x1="174.0" y1="92.0" x2="178.0" y2="94.0" style="stroke:#000000;stroke-width:1.0;fill-rule: evenodd;" fill="none"/>
<line x1="178.0" y1="72.0" x2="178.0" y2="80.0" style="stroke:#000000;stroke-width:1.0;fill-rule: evenodd;" fill="none"/>
<line x1="182.0" y1="82.0" x2="178.0" y2="80.0" style="stroke:#000000;stroke-width:1.0;fill-rule: evenodd;" fill="none"/>
<polygon points="172.0,84.0 168.0,82.0 170.0,80.0 " style="stroke:#000000;stroke-width:1.0;fill-rule: evenodd;" fill="#000000"/>
<line x1="160.0" y1="78.0" x2="170.0" y2="88.0" style="stroke:#000000;stroke-width:1.0;fill-rule: evenodd;" fill="none"/>
<polygon points="170.0,88.0 166.0,86.0 168.0,84.0 " style="stroke:#000000;stroke-width:1.0;fill-rule: evenodd;" fill="#000000"/>
<line x1="162.0" y1="74.0" x2="172.0" y2="84.0" style="stroke:#000000;stroke-width:1.0;fill-rule: evenodd;" fill="none"/>
<ellipse cx="179.0" cy="145.0" rx="7.0" ry="17.0" style="stroke:#000000;stroke-width:1.0;fill-rule: evenodd;" fill="none"/>
<line x1="174.0" y1="150.0" x2="182.0" y2="148.0" style="stroke:#000000;stroke-width:1.0;fill-rule: evenodd;" fill="none"/>
<line x1="182.0" y1="148.0" x2="174.0" y2="146.0" style="stroke:#000000;stroke-width:1.0;fill-rule: evenodd;" fill="none"/>
<line x1="174.0" y1="146.0" x2="182.0" y2="144.0" style="stroke:#000000;stroke-width:1.0;fill-rule: evenodd;" fill="none"/>
<line x1="182.0" y1="144.0" x2="174.0" y2="142.0" style="stroke:#000000;stroke-width:1.0;fill-rule: evenodd;" fill="none"/>
<line x1="174.0" y1="142.0" x2="182.0" y2="140.0" style="stroke:#000000;stroke-width:1.0;fill-rule: evenodd;" fill="none"/>
<line x1="178.0" y1="160.0" x2="178.0" y2="152.0" style="stroke:#000000;stroke-width:1.0;fill-rule: evenodd;" fill="none"/>
<line x1="174.0" y1="150.0" x2="178.0" y2="152.0" style="stroke:#000000;stroke-width:1.0;fill-rule: evenodd;" fill="none"/>
<line x1="178.0" y1="130.0" x2="178.0" y2="138.0" style="stroke:#000000;stroke-width:1.0;fill-rule: evenodd;" fill="none"/>
<line x1="182.0" y1="140.0" x2="178.0" y2="138.0" style="stroke:#000000;stroke-width:1.0;fill-rule: evenodd;" fill="none"/>
<polygon points="172.0,142.0 168.0,140.0 170.0,138.0 " style="stroke:#000000;stroke-width:1.0;fill-rule: evenodd;" fill="#000000"/>
<line x1="160.0" y1="136.0" x2="170.0" y2="146.0" style="stroke:#000000;stroke-width:1.0;fill-rule: evenodd;" fill="none"/>
<polygon points="170.0,146.0 166.0,144.0 168.0,142.0 " style="stroke:#000000;stroke-width:1.0;fill-rule: evenodd;" fill="#000000"/>
<line x1="162.0" y1="132.0" x2="172.0" y2="142.0" style="stroke:#000000;stroke-width:1.0;fill-rule: evenodd;" fill="none"/>
<g transform="translate(12.0,84.0) scale(1.2954545454545454,1) "><text x="0" y="8.0" font-family="Courier New" font-size="8.0" font-style="" font-weigth="" fill="#000000">LED</text>
</g>
<g transform="translate(10.0,138.0) scale(1.2954545454545454,1) "><text x="0" y="8.0" font-family="Courier New" font-size="8.0" font-style="" font-weigth="" fill="#000000">LED</text>
</g>
<g transform="translate(192.0,82.0) scale(1.2954545454545454,1) "><text x="0" y="8.0" font-family="Courier New" font-size="8.0" font-style="" font-weigth="" fill="#000000">LDR</text>
</g>
<g transform="translate(192.0,138.0) scale(1.2954545454545454,1) "><text x="0" y="8.0" font-family="Courier New" font-size="8.0" font-style="" font-weigth="" fill="#000000">LDR</text>
</g>
<g transform="translate(270.0,204.0) scale(1.2954545454545454,1) "><text x="0" y="8.0" font-family="Courier New" font-size="8.0" font-style="" font-weigth="" fill="#000000">吸　breath in</text>
</g>
<line x1="202.0" y1="196.0" x2="312.0" y2="196.0" style="stroke:#000000;stroke-width:1.0;fill-rule: evenodd;" fill="none"/>
<polygon points="312.0,196.0 306.0,200.0 306.0,192.0" style="stroke:#000000;stroke-width:1.0;fill-rule: evenodd;" fill="#000000"/>
<g transform="translate(270.0,168.0) scale(1.2954545454545454,1) "><text x="0" y="8.0" font-family="Courier New" font-size="8.0" font-style="" font-weigth="" fill="#000000">吐　breath out</text>
</g>
<g transform="translate(214.0,110.0) scale(1.2954545454545454,1) "><text x="0" y="8.0" font-family="Courier New" font-size="8.0" font-style="" font-weigth="" fill="#000000">横隔膜 diaphragm</text>
</g>
<line x1="52.0" y1="138.0" x2="180.0" y2="124.0" style="stroke:#000000;stroke-dasharray: 0.5,1.25;stroke-width:1.0;fill-rule: evenodd;" fill="none"/>
<line x1="52.0" y1="148.0" x2="180.0" y2="164.0" style="stroke:#000000;stroke-dasharray: 0.5,1.25;stroke-width:1.0;fill-rule: evenodd;" fill="none"/>
<line x1="56.0" y1="96.0" x2="180.0" y2="108.0" style="stroke:#000000;stroke-dasharray: 0.5,1.25;stroke-width:1.0;fill-rule: evenodd;" fill="none"/>
<line x1="56.0" y1="84.0" x2="178.0" y2="66.0" style="stroke:#000000;stroke-dasharray: 0.5,1.25;stroke-width:1.0;fill-rule: evenodd;" fill="none"/>
<line x1="114.0" y1="116.0" x2="114.0" y2="136.0" style="stroke:#000000;stroke-width:1.0;fill-rule: evenodd;" fill="none"/>
<polygon points="114.0,136.0 110.0,130.0 118.0,130.0" style="stroke:#000000;stroke-width:1.0;fill-rule: evenodd;" fill="#000000"/>
<line x1="114.0" y1="116.0" x2="114.0" y2="96.0" style="stroke:#000000;stroke-width:1.0;fill-rule: evenodd;" fill="none"/>
<polygon points="114.0,96.0 118.0,102.0 110.0,102.0" style="stroke:#000000;stroke-width:1.0;fill-rule: evenodd;" fill="#000000"/>
<g transform="translate(6.0,6.0) scale(1.2954545454545454,1) "><text x="0" y="8.0" font-family="Courier New" font-size="8.0" font-style="" font-weigth="" fill="#000000">呼吸共鳴器　breath syncronization instrument</text>
</g>
</svg>