<?xml version="1.0" encoding="UTF-8" standalone="no"?> 
<!DOCTYPE svg PUBLIC "-//W3C//Dtd SVG 1.1//EN" "http://www.w3.org/Graphics/SVG/1.1/Dtd/svg11.dtd">
<svg width="262.0" height="312.0" version="1.1" xmlns="http://www.w3.org/2000/svg" xmlns:xlink="http://www.w3.org/1999/xlink">
<!-- Created by FidoCadJ ver. 0.24.7, export filter by Davide Bucci -->
<rect x="6.0" y="226.0" rx="0" ry="0" width="230.0" height="20.0" style="stroke:#000000;stroke-width:1.0;fill-rule: evenodd;" fill="none"/>
<rect x="216.0" y="146.0" rx="0" ry="0" width="10.0" height="80.0" style="stroke:#000000;stroke-width:1.0;fill-rule: evenodd;" fill="none"/>
<rect x="206.0" y="96.0" rx="0" ry="0" width="10.0" height="130.0" style="stroke:#000000;stroke-width:1.0;fill-rule: evenodd;" fill="none"/>
<rect x="196.0" y="156.0" rx="0" ry="0" width="10.0" height="70.0" style="stroke:#000000;stroke-width:1.0;fill-rule: evenodd;" fill="none"/>
<rect x="186.0" y="46.0" rx="0" ry="0" width="10.0" height="180.0" style="stroke:#000000;stroke-width:1.0;fill-rule: evenodd;" fill="none"/>
<rect x="176.0" y="96.0" rx="0" ry="0" width="10.0" height="130.0" style="stroke:#000000;stroke-width:1.0;fill-rule: evenodd;" fill="none"/>
<rect x="166.0" y="166.0" rx="0" ry="0" width="10.0" height="60.0" style="stroke:#000000;stroke-width:1.0;fill-rule: evenodd;" fill="none"/>
<rect x="156.0" y="56.0" rx="0" ry="0" width="10.0" height="170.0" style="stroke:#000000;stroke-width:1.0;fill-rule: evenodd;" fill="none"/>
<rect x="146.0" y="146.0" rx="0" ry="0" width="10.0" height="80.0" style="stroke:#000000;stroke-width:1.0;fill-rule: evenodd;" fill="none"/>
<rect x="136.0" y="136.0" rx="0" ry="0" width="10.0" height="90.0" style="stroke:#000000;stroke-width:1.0;fill-rule: evenodd;" fill="none"/>
<rect x="126.0" y="96.0" rx="0" ry="0" width="10.0" height="130.0" style="stroke:#000000;stroke-width:1.0;fill-rule: evenodd;" fill="none"/>
<rect x="116.0" y="76.0" rx="0" ry="0" width="10.0" height="150.0" style="stroke:#000000;stroke-width:1.0;fill-rule: evenodd;" fill="none"/>
<rect x="106.0" y="66.0" rx="0" ry="0" width="10.0" height="160.0" style="stroke:#000000;stroke-width:1.0;fill-rule: evenodd;" fill="none"/>
<rect x="96.0" y="96.0" rx="0" ry="0" width="10.0" height="130.0" style="stroke:#000000;stroke-width:1.0;fill-rule: evenodd;" fill="none"/>
<rect x="86.0" y="56.0" rx="0" ry="0" width="10.0" height="170.0" style="stroke:#000000;stroke-width:1.0;fill-rule: evenodd;" fill="none"/>
<rect x="76.0" y="136.0" rx="0" ry="0" width="10.0" height="90.0" style="stroke:#000000;stroke-width:1.0;fill-rule: evenodd;" fill="none"/>
<rect x="66.0" y="116.0" rx="0" ry="0" width="10.0" height="110.0" style="stroke:#000000;stroke-width:1.0;fill-rule: evenodd;" fill="none"/>
<rect x="56.0" y="76.0" rx="0" ry="0" width="10.0" height="150.0" style="stroke:#000000;stroke-width:1.0;fill-rule: evenodd;" fill="none"/>
<rect x="46.0" y="106.0" rx="0" ry="0" width="10.0" height="120.0" style="stroke:#000000;stroke-width:1.0;fill-rule: evenodd;" fill="none"/>
<rect x="36.0" y="126.0" rx="0" ry="0" width="10.0" height="100.0" style="stroke:#000000;stroke-width:1.0;fill-rule: evenodd;" fill="none"/>
<rect x="26.0" y="136.0" rx="0" ry="0" width="10.0" height="90.0" style="stroke:#000000;stroke-width:1.0;fill-rule: evenodd;" fill="none"/>
<rect x="16.0" y="166.0" rx="0" ry="0" width="10.0" height="60.0" style="stroke:#000000;stroke-width:1.0;fill-rule: evenodd;" fill="none"/>
<rect x="216.0" y="116.0" rx="0" ry="0" width="10.0" height="30.0" style="stroke:#000000;stroke-dasharray: 0.5,0.5;stroke-width:1.0;fill-rule: evenodd;" fill="none"/>
<rect x="186.0" y="26.0" rx="0" ry="0" width="10.0" height="20.0" style="stroke:#000000;stroke-dasharray: 0.5,0.5;stroke-width:1.0;fill-rule: evenodd;" fill="none"/>
<rect x="196.0" y="76.0" rx="0" ry="0" width="10.0" height="80.0" style="stroke:#000000;stroke-dasharray: 0.5,0.5;stroke-width:1.0;fill-rule: evenodd;" fill="none"/>
<rect x="236.0" y="230.0" rx="0" ry="0" width="20.0" height="10.0" style="stroke:#000000;stroke-width:1.0;fill-rule: evenodd;" fill="none"/>
<rect x="176.0" y="56.0" rx="0" ry="0" width="10.0" height="40.0" style="stroke:#000000;stroke-dasharray: 0.5,0.5;stroke-width:1.0;fill-rule: evenodd;" fill="none"/>
<rect x="146.0" y="76.0" rx="0" ry="0" width="10.0" height="70.0" style="stroke:#000000;stroke-dasharray: 0.5,0.5;stroke-width:1.0;fill-rule: evenodd;" fill="none"/>
<rect x="126.0" y="36.0" rx="0" ry="0" width="10.0" height="60.0" style="stroke:#000000;stroke-dasharray: 0.5,0.5;stroke-width:1.0;fill-rule: evenodd;" fill="none"/>
<rect x="156.0" y="6.0" rx="0" ry="0" width="10.0" height="50.0" style="stroke:#000000;stroke-dasharray: 0.5,0.5;stroke-width:1.0;fill-rule: evenodd;" fill="none"/>
<rect x="216.0" y="246.0" rx="0" ry="0" width="10.0" height="60.0" style="stroke:#000000;stroke-width:1.0;fill-rule: evenodd;" fill="none"/>
<rect x="206.0" y="246.0" rx="0" ry="0" width="10.0" height="60.0" style="stroke:#000000;stroke-width:1.0;fill-rule: evenodd;" fill="none"/>
<rect x="196.0" y="246.0" rx="0" ry="0" width="10.0" height="60.0" style="stroke:#000000;stroke-width:1.0;fill-rule: evenodd;" fill="none"/>
<rect x="186.0" y="246.0" rx="0" ry="0" width="10.0" height="60.0" style="stroke:#000000;stroke-width:1.0;fill-rule: evenodd;" fill="none"/>
<rect x="176.0" y="246.0" rx="0" ry="0" width="10.0" height="60.0" style="stroke:#000000;stroke-width:1.0;fill-rule: evenodd;" fill="none"/>
<rect x="166.0" y="246.0" rx="0" ry="0" width="10.0" height="60.0" style="stroke:#000000;stroke-width:1.0;fill-rule: evenodd;" fill="none"/>
<rect x="156.0" y="246.0" rx="0" ry="0" width="10.0" height="60.0" style="stroke:#000000;stroke-width:1.0;fill-rule: evenodd;" fill="none"/>
<rect x="146.0" y="246.0" rx="0" ry="0" width="10.0" height="60.0" style="stroke:#000000;stroke-width:1.0;fill-rule: evenodd;" fill="none"/>
<rect x="136.0" y="246.0" rx="0" ry="0" width="10.0" height="60.0" style="stroke:#000000;stroke-width:1.0;fill-rule: evenodd;" fill="none"/>
<rect x="126.0" y="246.0" rx="0" ry="0" width="10.0" height="60.0" style="stroke:#000000;stroke-width:1.0;fill-rule: evenodd;" fill="none"/>
<rect x="116.0" y="246.0" rx="0" ry="0" width="10.0" height="60.0" style="stroke:#000000;stroke-width:1.0;fill-rule: evenodd;" fill="none"/>
<rect x="106.0" y="246.0" rx="0" ry="0" width="10.0" height="60.0" style="stroke:#000000;stroke-width:1.0;fill-rule: evenodd;" fill="none"/>
<rect x="96.0" y="246.0" rx="0" ry="0" width="10.0" height="60.0" style="stroke:#000000;stroke-width:1.0;fill-rule: evenodd;" fill="none"/>
<rect x="86.0" y="246.0" rx="0" ry="0" width="10.0" height="60.0" style="stroke:#000000;stroke-width:1.0;fill-rule: evenodd;" fill="none"/>
<rect x="76.0" y="246.0" rx="0" ry="0" width="10.0" height="60.0" style="stroke:#000000;stroke-width:1.0;fill-rule: evenodd;" fill="none"/>
<rect x="66.0" y="246.0" rx="0" ry="0" width="10.0" height="60.0" style="stroke:#000000;stroke-width:1.0;fill-rule: evenodd;" fill="none"/>
<rect x="56.0" y="246.0" rx="0" ry="0" width="10.0" height="60.0" style="stroke:#000000;stroke-width:1.0;fill-rule: evenodd;" fill="none"/>
<rect x="46.0" y="246.0" rx="0" ry="0" width="10.0" height="60.0" style="stroke:#000000;stroke-width:1.0;fill-rule: evenodd;" fill="none"/>
<rect x="36.0" y="246.0" rx="0" ry="0" width="10.0" height="60.0" style="stroke:#000000;stroke-width:1.0;fill-rule: evenodd;" fill="none"/>
<rect x="26.0" y="246.0" rx="0" ry="0" width="10.0" height="60.0" style="stroke:#000000;stroke-width:1.0;fill-rule: evenodd;" fill="none"/>
<rect x="16.0" y="246.0" rx="0" ry="0" width="10.0" height="60.0" style="stroke:#000000;stroke-width:1.0;fill-rule: evenodd;" fill="none"/>
<rect x="136.0" y="66.0" rx="0" ry="0" width="10.0" height="70.0" style="stroke:#000000;stroke-dasharray: 0.5,0.5;stroke-width:1.0;fill-rule: evenodd;" fill="none"/>
<rect x="76.0" y="76.0" rx="0" ry="0" width="10.0" height="60.0" style="stroke:#000000;stroke-dasharray: 0.5,0.5;stroke-width:1.0;fill-rule: evenodd;" fill="none"/>
<rect x="106.0" y="6.0" rx="0" ry="0" width="10.0" height="60.0" style="stroke:#000000;stroke-dasharray: 0.5,0.5;stroke-width:1.0;fill-rule: evenodd;" fill="none"/>
<rect x="96.0" y="36.0" rx="0" ry="0" width="10.0" height="60.0" style="stroke:#000000;stroke-dasharray: 0.5,0.5;stroke-width:1.0;fill-rule: evenodd;" fill="none"/>
<rect x="26.0" y="106.0" rx="0" ry="0" width="10.0" height="30.0" style="stroke:#000000;stroke-dasharray: 0.5,0.5;stroke-width:1.0;fill-rule: evenodd;" fill="none"/>
<rect x="56.0" y="36.0" rx="0" ry="0" width="10.0" height="40.0" style="stroke:#000000;stroke-dasharray: 0.5,0.5;stroke-width:1.0;fill-rule: evenodd;" fill="none"/>
<rect x="166.0" y="66.0" rx="0" ry="0" width="10.0" height="100.0" style="stroke:#000000;stroke-dasharray: 0.5,0.5;stroke-width:1.0;fill-rule: evenodd;" fill="none"/>
<rect x="16.0" y="156.0" rx="0" ry="0" width="10.0" height="10.0" style="stroke:#000000;stroke-dasharray: 0.5,0.5;stroke-width:1.0;fill-rule: evenodd;" fill="none"/>
</svg>